<svg id="Layer_1" data-name="Layer 1" xmlns="http://www.w3.org/2000/svg" viewBox="0 0 1400 240"><defs><style>.cls-1{fill:#045e88;}.cls-2{fill:#c91c1c;}</style></defs><path class="cls-1" d="M11.91,103.5a83.76,83.76,0,0,1,6.7-33.8A80,80,0,0,1,37,43.2a83.58,83.58,0,0,1,27.7-17.3,94.41,94.41,0,0,1,34.4-6.2q24.8,0,42.8,10.1t32.4,29.9l-27.4,23a61.66,61.66,0,0,0-18.7-21q-11.31-7.8-28.1-7.8a46.52,46.52,0,0,0-19,3.8,43,43,0,0,0-14.7,10.5A48.12,48.12,0,0,0,56.91,84a55.21,55.21,0,0,0-3.4,19.5,55.94,55.94,0,0,0,3.3,19.4,46.23,46.23,0,0,0,9.5,15.7,43.94,43.94,0,0,0,14.9,10.5,47.76,47.76,0,0,0,19.3,3.8,55.78,55.78,0,0,0,15.5-2,45.28,45.28,0,0,0,12.6-5.8,52.11,52.11,0,0,0,10.4-9.2,82,82,0,0,0,8.7-12.2l26.8,23.8q-13.6,19-31.7,29.4t-43.7,10.4a94.41,94.41,0,0,1-34.4-6.2A83.75,83.75,0,0,1,37,163.8a80,80,0,0,1-18.4-26.5A83.76,83.76,0,0,1,11.91,103.5Z"/><path class="cls-1" d="M189.11,23.9h89.4A65.9,65.9,0,0,1,298,26.7a43.16,43.16,0,0,1,15.7,8.5,39.24,39.24,0,0,1,10.4,14.7,54.31,54.31,0,0,1,3.8,21.2q0,16-5.4,25.9a40.38,40.38,0,0,1-16,15.9l30.4,70.4h-43.4l-24.8-58.4-38,8.4v50h-41.6Zm97.4,48.2a14,14,0,0,0-3.7-9.7,12.7,12.7,0,0,0-9.9-4.1h-42.2V96.9l38-7q10.2-1.8,14-6.6A17.53,17.53,0,0,0,286.51,72.1Z"/><path class="cls-1" d="M384.71,23.9l31.2,52.6,31.2-52.6h45.8l-56.4,92.8v66.6h-41.6V116.1l-56-92.2Z"/><path class="cls-1" d="M522.9,131.3a87.67,87.67,0,0,0,24.8,14.6,76.25,76.25,0,0,0,29.2,5.4q10-.2,14.6-3a9.2,9.2,0,0,0,4.6-8.4,12.62,12.62,0,0,0-5.3-10.6q-5.29-4-17.7-7.4-10.59-3-21.8-6.5a86.31,86.31,0,0,1-20.4-9.3,49.36,49.36,0,0,1-15.1-14.8q-5.89-9-5.9-23.2,0-12.6,4.9-21.7a42.64,42.64,0,0,1,13.4-15A59.63,59.63,0,0,1,548,22.7a98.94,98.94,0,0,1,23.9-2.8,111.11,111.11,0,0,1,16.7,1.2,97.66,97.66,0,0,1,15.6,3.7,106.56,106.56,0,0,1,15.2,6.3,144,144,0,0,1,15.5,9.2l-16.4,32a78.26,78.26,0,0,0-45.6-16.2,44.17,44.17,0,0,0-7.9.3,22.45,22.45,0,0,0-6.5,1.8,13.16,13.16,0,0,0-4.5,3.3,7.46,7.46,0,0,0-1.7,5,14.46,14.46,0,0,0,.9,5.3,10.35,10.35,0,0,0,3.5,4.3,33.34,33.34,0,0,0,7.5,4,116.36,116.36,0,0,0,13.1,4.2q12.81,3.6,24.1,7.5a78.8,78.8,0,0,1,19.7,9.8,42.79,42.79,0,0,1,13.2,14.7q4.8,8.81,4.8,22.2,0,12.41-4.8,21.6a41.92,41.92,0,0,1-13.4,15.2,61.94,61.94,0,0,1-20.4,9,104.5,104.5,0,0,1-25.8,3,113.12,113.12,0,0,1-37.3-6,125.41,125.41,0,0,1-32.1-16.6Z"/><path class="cls-1" d="M747.3,58.3v125H705.7V58.3H655.1V23.9H797.9V58.3Z"/><path class="cls-1" d="M801.9,183.3l54-159.4h52.4l54,159.4H920.7l-15.2-44.6-51.6,14.2-10.4,30.4Zm64.8-68.2,28-7.8L882.1,69.9Z"/><path class="cls-1" d="M980.3,23.9h41.6v125h76.2v34.4H980.3Z"/><path class="cls-1" d="M1116.1,82.7h109.6v34.4H1116.1Z"/><path class="cls-2" d="M1293.69,145.5q9,11.4,26.2,11.4,12,0,20.6-3.7a48.18,48.18,0,0,0,16.2-11.9l27,20a84.69,84.69,0,0,1-26.1,20.6q-14.7,7.4-34.5,7.4a92.57,92.57,0,0,1-29.6-4.5,69,69,0,0,1-23.2-12.9,57.48,57.48,0,0,1-15.2-20.5,66.32,66.32,0,0,1-5.4-27.3,64.37,64.37,0,0,1,5.5-26.9,60.73,60.73,0,0,1,15.1-20.6,69.51,69.51,0,0,1,22.4-13.2,79,79,0,0,1,27.4-4.7,81.53,81.53,0,0,1,27.6,4.5,61.55,61.55,0,0,1,21.6,12.9,58.76,58.76,0,0,1,14.1,20.6,71,71,0,0,1,5.1,27.6Zm27.8-54.8q-13.59,0-22.4,6.6t-11.2,18.4l58.4-13a32,32,0,0,0-10.2-8.6A29.86,29.86,0,0,0,1321.49,90.7Z"/></svg>