<svg id="Layer_1" data-name="Layer 1" xmlns="http://www.w3.org/2000/svg" viewBox="0 0 1624 200"><defs><style>.cls-1{fill:#efefef;}</style></defs><path class="cls-1" d="M.33,98.82A98.83,98.83,0,0,1,8.24,59,94.46,94.46,0,0,1,29.93,27.71,98.89,98.89,0,0,1,62.6,7.31,111.37,111.37,0,0,1,103.16,0q29.25,0,50.48,11.91t38.2,35.26L159.53,74.29a72.69,72.69,0,0,0-22.05-24.76q-13.32-9.2-33.14-9.2a54.94,54.94,0,0,0-22.4,4.48A51.22,51.22,0,0,0,64.6,57.19,56.82,56.82,0,0,0,53.4,75.83a65,65,0,0,0-4,23,66.07,66.07,0,0,0,3.89,22.88,54.72,54.72,0,0,0,11.2,18.51,51.91,51.91,0,0,0,17.58,12.38,56.21,56.21,0,0,0,22.76,4.49,65.67,65.67,0,0,0,18.27-2.36A53.18,53.18,0,0,0,138,147.88,61.81,61.81,0,0,0,150.22,137a96.7,96.7,0,0,0,10.26-14.39l31.6,28.07Q176,173.12,154.7,185.38t-51.54,12.26a111.37,111.37,0,0,1-40.56-7.31,98.89,98.89,0,0,1-32.67-20.4A94.36,94.36,0,0,1,8.24,138.68,98.8,98.8,0,0,1,.33,98.82Z"/><path class="cls-1" d="M209.3,5H314.72a77.81,77.81,0,0,1,23,3.3,50.92,50.92,0,0,1,18.52,10,46.21,46.21,0,0,1,12.26,17.33q4.49,10.62,4.48,25,0,18.87-6.36,30.55a47.67,47.67,0,0,1-18.87,18.75l35.85,83H332.41l-29.25-68.86L258.35,134v59H209.3ZM324.15,61.79a16.52,16.52,0,0,0-4.36-11.44q-4.37-4.83-11.67-4.83H258.35V91l44.81-8.26q12-2.11,16.51-7.78A20.63,20.63,0,0,0,324.15,61.79Z"/><path class="cls-1" d="M440,5l36.8,62L513.54,5h54L501,114.39v78.53H452V113.68L386,5Z"/><path class="cls-1" d="M602.92,131.6a103.18,103.18,0,0,0,29.25,17.22,89.73,89.73,0,0,0,34.43,6.37q11.79-.24,17.22-3.54a10.83,10.83,0,0,0,5.42-9.91A14.89,14.89,0,0,0,683,129.25q-6.25-4.73-20.88-8.73-12.5-3.54-25.71-7.67a101.71,101.71,0,0,1-24-11,58,58,0,0,1-17.81-17.46q-7-10.61-7-27.35,0-14.86,5.78-25.59a50.2,50.2,0,0,1,15.8-17.69A70.13,70.13,0,0,1,632.52,3.54,116.89,116.89,0,0,1,660.71.24,131.64,131.64,0,0,1,680.4,1.65,116.24,116.24,0,0,1,698.8,6a126.34,126.34,0,0,1,17.92,7.43A171.94,171.94,0,0,1,735,24.29L715.66,62a92.34,92.34,0,0,0-53.77-19.11,52.3,52.3,0,0,0-9.32.36,26.52,26.52,0,0,0-7.66,2.12,15.26,15.26,0,0,0-5.31,3.89,8.79,8.79,0,0,0-2,5.9,17,17,0,0,0,1.07,6.25,12.1,12.1,0,0,0,4.12,5.07,38.75,38.75,0,0,0,8.85,4.72,135.15,135.15,0,0,0,15.45,5Q682.17,80.43,695.5,85a93.17,93.17,0,0,1,23.23,11.56,50.53,50.53,0,0,1,15.56,17.34Q740,124.3,740,140.09q0,14.64-5.66,25.48a49.48,49.48,0,0,1-15.8,17.92,72.85,72.85,0,0,1-24.06,10.61A123.27,123.27,0,0,1,664,197.64a133.52,133.52,0,0,1-44-7.07A148,148,0,0,1,582.17,171Z"/><path class="cls-1" d="M867.54,45.52v147.4h-49V45.52H758.82V5H927.21V45.52Z"/><path class="cls-1" d="M931.93,192.92,995.61,5h61.79l63.68,188H1072l-17.92-52.59-60.85,16.75L981,192.92Zm76.41-80.42,33-9.2L1026.5,59.2Z"/><path class="cls-1" d="M1142.31,5h49V152.36h89.86v40.56H1142.31Z"/><path class="cls-1" d="M1302.44,74.29h129.25v40.57H1302.44Z"/><path class="cls-1" d="M1511.87,148.35q10.62,13.44,30.9,13.44,14.14,0,24.29-4.36a57,57,0,0,0,19.11-14L1618,167a99.92,99.92,0,0,1-30.78,24.29q-17.34,8.73-40.69,8.73a109,109,0,0,1-34.9-5.31,80.94,80.94,0,0,1-27.36-15.21,67.6,67.6,0,0,1-17.92-24.17Q1460,141,1460,123.11a75.87,75.87,0,0,1,6.48-31.72,71.61,71.61,0,0,1,17.81-24.29,82.25,82.25,0,0,1,26.41-15.57A93.19,93.19,0,0,1,1543,46a96,96,0,0,1,32.54,5.31A72.43,72.43,0,0,1,1601,66.51a69.18,69.18,0,0,1,16.63,24.29q6,14.39,6,32.55Zm32.79-64.62q-16,0-26.42,7.78T1505,113.21l68.87-15.33a37.78,37.78,0,0,0-12-10.14A35.16,35.16,0,0,0,1544.66,83.73Z"/></svg>