<svg width="57" height="97" xmlns="http://www.w3.org/2000/svg" xmlns:xlink="http://www.w3.org/1999/xlink" overflow="hidden"><defs><clipPath id="clip0"><rect x="229" y="474" width="57" height="97"/></clipPath></defs><g clip-path="url(#clip0)" transform="translate(-229 -474)"><path d="M64.6464 59.2592C57.9124 59.2592 52.5252 53.872 52.5252 47.138 52.5252 40.404 57.9124 35.0168 64.6464 35.0168 71.3804 35.0168 76.7676 40.404 76.7676 47.138 76.7676 53.872 71.3804 59.2592 64.6464 59.2592ZM64.6464 18.8552C55.3535 18.8552 46.5993 23.4343 41.3467 31.2457 36.0942 38.9225 35.0168 48.7541 38.3838 57.5083L51.1784 85.7911 62.2221 108.956C62.6262 109.899 63.5689 110.438 64.6464 110.438 65.7238 110.438 66.6666 109.899 67.0706 108.956L78.1144 85.7911 90.909 57.5083C94.276 48.7541 93.1985 38.9225 87.946 31.2457 82.6935 23.4343 73.9393 18.8552 64.6464 18.8552Z" fill="#C91C1C" transform="matrix(1 0 0 1.01024 192.736 457.416)"/></g></svg>