<svg width="330" height="352" xmlns="http://www.w3.org/2000/svg" xmlns:xlink="http://www.w3.org/1999/xlink" overflow="hidden"><defs><clipPath id="clip0"><rect x="1455" y="1530" width="330" height="352"/></clipPath><clipPath id="clip1"><rect x="1455" y="1530" width="331" height="331"/></clipPath><clipPath id="clip2"><rect x="1455" y="1530" width="331" height="331"/></clipPath><clipPath id="clip3"><rect x="1455" y="1530" width="331" height="331"/></clipPath></defs><g clip-path="url(#clip0)" transform="translate(-1455 -1530)"><g clip-path="url(#clip1)"><g clip-path="url(#clip2)"><g clip-path="url(#clip3)"><path d="M1620 1578.12C1547.81 1578.12 1489.38 1636.56 1489.38 1708.75L1489.38 1770.62C1489.38 1776.47 1493.84 1780.94 1499.69 1780.94 1505.53 1780.94 1510 1776.47 1510 1770.62L1510 1767.19 1523.75 1767.19 1523.75 1798.12C1523.75 1805.69 1529.94 1811.88 1537.5 1811.88L1558.13 1811.88C1565.69 1811.88 1571.88 1805.69 1571.88 1798.12L1571.88 1722.5C1571.88 1714.94 1565.69 1708.75 1558.13 1708.75L1537.5 1708.75C1529.94 1708.75 1523.75 1714.94 1523.75 1722.5L1523.75 1753.44 1510 1753.44 1510 1708.75C1510 1648.25 1559.5 1598.75 1620 1598.75 1680.5 1598.75 1730 1648.25 1730 1708.75L1730 1753.44 1716.25 1753.44 1716.25 1722.5C1716.25 1714.94 1710.06 1708.75 1702.5 1708.75L1681.88 1708.75C1674.31 1708.75 1668.13 1714.94 1668.13 1722.5L1668.13 1798.12C1668.13 1805.69 1674.31 1811.88 1681.88 1811.88L1702.5 1811.88C1710.06 1811.88 1716.25 1805.69 1716.25 1798.12L1716.25 1767.19 1730 1767.19 1730 1770.62C1730 1776.47 1734.47 1780.94 1740.31 1780.94 1746.16 1780.94 1750.63 1776.47 1750.63 1770.62L1750.63 1708.75C1750.63 1636.56 1692.19 1578.12 1620 1578.12Z"/></g></g></g><path d="M1740 1771C1740 1823.47 1697.47 1866 1645 1866" stroke="#000000" stroke-width="10.3125" stroke-miterlimit="8" fill="none" fill-rule="evenodd"/><path d="M1610.17 1855 1648.83 1855C1653.89 1855 1658 1861.04 1658 1868.5 1658 1875.96 1653.89 1882 1648.83 1882L1610.17 1882C1605.11 1882 1601 1875.96 1601 1868.5 1601 1861.04 1605.11 1855 1610.17 1855Z" fill-rule="evenodd"/></g></svg>