<svg xmlns="http://www.w3.org/2000/svg" viewBox="0 0 453.54 680.31"><defs><style>.cls-1{fill:#5b5b5b;}.cls-2{fill:#8c8c8c;}.cls-3{fill:#5e5e5e;}.cls-4{fill:#545454;}.cls-5{fill:#666;}.cls-6{fill:#646666;}.cls-7{fill:#7f7f7f;}.cls-8{fill:#3f3f3f;}.cls-9{fill:#262626;}.cls-10{fill:#a6fca4;}.cls-11{fill:#e5c1e2;}.cls-12{fill:#c0f2f2;}.cls-13{fill:#c4c4c4;}.cls-14{fill:#aee5e3;}.cls-15{fill:#bbbae2;}.cls-16{fill:#f4b3b3;}.cls-17{fill:#f2efc0;}.cls-18{fill:#e2ede2;}.cls-19{fill:#d1f2ce;}.cls-20{fill:#d4f4f2;}.cls-21{fill:#ddd8a6;}.cls-22{fill:#f2d7f1;}.cls-23{fill:none;stroke:#fff;stroke-width:2px;}</style></defs><polygon class="cls-1" points="210.69 561.38 199.36 567.38 199.36 514.38 210.69 514.38 210.69 561.38"/><polygon class="cls-2" points="199.69 567.05 191.75 560.72 191.69 520.05 199.69 520.05 199.69 567.05"/><polygon class="cls-3" points="191.75 560.72 167.75 571.38 167.46 514.38 191.69 514.05 191.75 560.72"/><polygon class="cls-4" points="167.75 571.38 163.42 584.05 163.69 527.05 167.69 526.05 167.75 571.38"/><polygon class="cls-2" points="163.42 584.05 75.75 570.05 75.69 539.72 163.82 538.72 163.42 584.05"/><polygon class="cls-5" points="109.36 374.72 91.08 352.38 91.02 322.05 109.02 321.05 109.36 374.72"/><polygon class="cls-1" points="64.72 306.55 44.18 322.69 43.69 291.72 64.02 291.05 64.72 306.55"/><polygon class="cls-2" points="44.39 322.88 35.36 301.38 35.35 287.51 44.36 306.38 44.39 322.88"/><polygon class="cls-3" points="75.75 570.38 50.92 577.29 51.36 526.05 75.69 525.05 75.75 570.38"/><polygon class="cls-6" points="51.08 589.05 22.42 602.05 22.36 562.72 51.02 543.72 51.08 589.05"/><polygon class="cls-2" points="22.42 602.05 12.02 584.05 11.73 568.38 22.55 571.72 22.42 602.05"/><polygon class="cls-5" points="43.02 546.38 20.36 542.05 20.06 526.38 44.36 526.38 43.02 546.38"/><polygon class="cls-7" points="42.02 477.05 40.69 468.38 40.36 454.38 49.69 454.72 42.02 477.05"/><polygon class="cls-3" points="253.36 522.72 208.03 540.72 208.03 487.72 253.36 487.72 253.36 522.72"/><polygon class="cls-5" points="97.75 313.38 68.67 300.09 67.73 247.38 114.02 247.38 97.75 313.38"/><polygon class="cls-5" points="68.69 300.38 65.69 285.38 65.69 232.38 68.36 231.72 68.69 300.38"/><polygon class="cls-1" points="69.36 270.05 48.36 269.38 48.36 228.72 69.36 235.05 69.36 270.05"/><polygon class="cls-1" points="116.69 205.72 101.36 193.72 101.36 178.38 122.36 159.38 116.69 205.72"/><polygon class="cls-5" points="110.36 169.05 84.69 164.72 84.69 149.38 118.02 130.38 110.36 169.05"/><polygon class="cls-2" points="84.69 164.72 59.36 123.72 59.36 108.38 84.69 97.38 84.69 164.72"/><polygon class="cls-2" points="269.75 530.72 253.03 522.86 253.03 470.38 270.02 470.38 269.75 530.72"/><polygon class="cls-4" points="275.02 514.38 269.75 530.72 269.84 477.05 275.02 477.05 275.02 514.38"/><polygon class="cls-3" points="301.08 510.05 275.02 514.38 275.02 461.38 301.02 461.38 301.08 510.05"/><polygon class="cls-2" points="312.42 523.8 301.02 510.05 301.02 457.05 312.69 457.05 312.42 523.8"/><polygon class="cls-7" points="334.42 528.72 312.36 523.72 312.36 470.71 334.32 470.71 334.42 528.72"/><polygon class="cls-8" points="353.42 492.71 334.36 528.72 334.36 475.71 353.44 475.71 353.42 492.71"/><polygon class="cls-4" points="403.75 463.38 353.36 492.71 353.36 439.71 404.02 427.38 403.75 463.38"/><polygon class="cls-8" points="420.42 438.71 403.72 463.41 403.65 410.71 420.69 411.38 420.42 438.71"/><polygon class="cls-9" points="441.82 365.09 420.42 438.71 420.36 386.05 441.48 348.09 441.82 365.09"/><polygon class="cls-7" points="138.28 656.22 65.19 674.3 65.19 638.3 138.11 638.3 138.28 656.22"/><polygon class="cls-2" points="65.28 674.22 40.62 645.81 40.6 630.81 65.11 656.3 65.28 674.22"/><polygon class="cls-1" points="150.13 627.14 138.37 656.06 138.35 641.06 150.11 612.14 150.13 627.14"/><path class="cls-10" d="M40.6,630.81c.36-1.08,63.19-33,63.19-33l46.32,14.36-11.85,29.08L65,659.53Z"/><polygon class="cls-11" points="396.4 376.05 355.73 394.71 289.4 387.71 269.06 362.05 250.41 355.5 242.06 357.71 217.06 392.71 226.4 414.05 213.3 428.02 222.31 453.89 240.9 483.86 247.01 510.64 230 516.99 230 516.99 253.06 508.38 269.73 515.72 275.06 499.05 301.06 495.05 312.39 509.05 334.39 513.72 353.73 477.05 403.73 448.38 420.4 423.71 432.02 383.76 396.4 376.05"/><polygon class="cls-12" points="47.09 258.53 35.35 287.51 44.16 307.69 64.7 291.55 47.09 258.53"/><path class="cls-13" d="M177.38,203,234.6,166.4l60.5-2.81L335,195.48s-8,47.84-9.85,47.84-54.87,24.86-54.87,24.86l1.87,40.34-4.37,34-28.93,6.36-35.17-.47L164.72,258.8Z"/><polygon class="cls-14" points="218.16 342.48 218.12 329.78 212.12 307.6 208.82 288.42 192.04 272.53 182.74 243.15 194.6 234.15 185.14 214.07 127.58 215.87 114.39 203.57 114.39 203.72 85.73 194.38 47.06 227.72 48.4 254.38 65.06 255.05 65.73 269.71 68.39 285.05 97.73 298.38 88.39 316.38 90.26 330.81 116.79 342.68 136.7 332.79 147.06 333.38 157.86 336.08 174.35 324.09 186.94 324.69 198.63 342.68 218.16 342.48"/><polygon class="cls-15" points="250.06 355.38 247.4 338.38 247.57 338.13 226.73 342.05 218.16 342.15 218.16 342.48 198.63 342.68 186.94 324.69 174.35 324.09 157.86 336.08 147.06 333.38 136.7 332.79 116.79 342.68 90.26 330.81 89.06 321.53 91.06 337.05 106.39 357.05 86.39 382.38 81.06 412.38 82.37 405.01 100 428.11 127.88 410.72 152.16 422.11 170.75 432 213.02 427.21 213.3 428.02 226.4 414.05 217.06 392.71 242.06 357.71 250.41 355.5 254.44 356.92 254.44 356.92 250.06 355.38"/><path class="cls-10" d="M439.06,323.72l-14.66,6.66,6.66-99.33-12-17.34-8-47.33.74,4.34-14.12,21.76L383,194l-51.87,3.3-9.66-4.88-10.74,38-24.33-5.66-37.67,30,2,7.33-6.67,31.67,15.6,15.37L247.4,338.38l2.66,17,19,6.67,20.34,25.67,66.33,7,40.67-18.67L432,383.76l9.71-33.38Z"/><path class="cls-16" d="M411.06,166.38,376.4,109.05,311.06,10.38,302.23,6l-6.5,11.69-21.39,1.8-9.28,14.2-46,7.34-51.35-4.38L175,56.09l37.17,32.67S213,122,213.92,122s26.38,9.89,26.38,9.89l-8.09,48L245.4,185S282,173.6,283.77,173.9s47.36,23.38,47.36,23.38L383,194l14.68-1.5,14.12-21.76Z"/><path class="cls-17" d="M240.3,131.93S214.82,122,213.92,122s-1.8-33.28-1.8-33.28L175,56.09l-7.24-19.42-3.31-.29-32.15,17.3-.52,6.7L110.4,75.05l7.33,16.66-14.67,8.67-24.66-12-19.34,20L84.4,149.71l28,4.67-11.34,24,13.34,10.67v14.52l13.18,12.3,57.56-1.8.53.92,27.39-21.27L238,182.13l-5.77-2.24Z"/><polygon class="cls-13" points="240.9 483.86 222.31 453.89 213.02 427.21 170.75 432 152.16 422.11 127.88 410.72 100 428.11 82.37 405.01 81.06 412.38 65.06 437.05 67.73 447.71 40.52 453.29 43.73 471.71 29.06 483.71 20.39 527.05 39.73 531.05 11.73 568.38 22.39 587.05 51.06 573.72 51.06 562.38 75.73 555.05 163.73 569.05 167.73 556.38 191.73 545.72 199.73 552.38 210.4 546.38 208.4 525.05 247.01 510.64 240.9 483.86"/><polygon class="cls-18" points="105.93 438.55 138.08 438.55 151.43 451.89 122.31 468.88 99.86 451.89 105.93 438.55"/><polygon class="cls-19" points="302.9 355.71 308.4 371.21 303.57 389.21 320.98 391.05 347.4 357.21 332.4 338.21 302.9 355.71"/><polygon class="cls-20" points="212.48 308.93 212.12 307.6 208.82 288.42 192.04 272.53 191.71 271.48 175.4 295.71 194.4 312.21 212.48 308.93"/><polygon class="cls-21" points="98.89 128.72 93.39 110.72 99.94 98.86 78.39 88.38 59.06 108.38 84.39 149.72 111.64 154.25 126.89 145.72 122.89 121.72 98.89 128.72"/><polygon class="cls-13" points="172.4 130.22 144.9 114.72 124.23 129.74 126.42 142.89 145.4 149.22 173.4 142.22 172.4 130.22"/><polygon class="cls-22" points="355.09 476.27 403.73 448.38 410.63 438.17 400.9 421.21 361.4 442.21 357.9 453.71 318.9 465.21 330.4 476.21 351.9 468.71 355.09 476.27"/><path class="cls-15" d="M396.4,376.05l-15.85,7.27c-1.92,6.47-3.65,12.9-3.65,12.9l22,15.5,1.23,9.9.77-.4,9.73,16.95-1.72,2.55h0l11.49-17,11.62-40Z"/><polyline class="cls-23" points="431.7 383.76 396.08 376.05 355.41 394.71 289.08 387.71 268.74 362.05 250.09 355.5 241.74 357.71 216.74 392.71 226.08 414.05 212.98 428.02 221.99 453.89 240.58 483.86 246.7 510.64"/><polyline class="cls-23" points="89.94 330.81 116.47 342.68 136.38 332.79 146.74 333.38 157.54 336.08 174.03 324.09 186.62 324.69 198.31 342.68 217.84 342.48 217.8 329.78 211.8 307.6 208.5 288.42 191.72 272.53 182.43 243.15 194.29 234.15 184.82 214.07 127.27 215.87 114.08 203.57 114.08 203.72"/><polyline class="cls-23" points="82.05 405.01 99.68 428.11 127.56 410.72 151.84 422.11 170.43 432 212.7 427.21 212.98 428.02 226.08 414.05 216.74 392.71 241.74 357.71 250.09 355.5 254.13 356.92 254.13 356.92 249.74 355.38 247.08 338.38 247.25 338.13 226.41 342.05 217.84 342.15 217.84 342.48 198.31 342.68 186.62 324.69 174.03 324.09 157.54 336.08 146.74 333.38 136.38 332.79 116.47 342.68 89.94 330.81"/><path class="cls-23" d="M411.48,170.72l-14.11,21.76L382.68,194l-51.86,3.3-9.66-4.88-10.75,38-24.33-5.66-37.67,30,2,7.33-6.67,31.67,15.6,15.37-12.26,29.29,2.66,17,19,6.67,20.34,25.67,66.33,7,40.67-18.67,35.62,7.71"/><path class="cls-23" d="M167.4,36.67l7.23,19.42L211.8,88.76s.9,33.28,1.8,33.28S240,131.93,240,131.93l-8.09,48,13.19,5.1s36.57-11.39,38.37-11.09,47.37,23.38,47.37,23.38l51.86-3.3,14.69-1.5,14.11-21.76"/><polyline class="cls-23" points="110.08 75.05 117.41 91.72 102.74 100.38"/><path class="cls-23" d="M112.08,154.38l-11.34,24,13.34,10.67v14.52l13.19,12.3,57.55-1.8.53.92,27.39-21.27,24.92-11.59-5.77-2.24,8.09-48S214.5,122,213.6,122s-1.8-33.28-1.8-33.28L174.63,56.09,167.4,36.67"/><polyline class="cls-23" points="246.7 510.64 240.58 483.86 221.99 453.89 212.7 427.21 170.43 432 151.84 422.11 127.56 410.72 99.68 428.11 82.05 405.01"/><polygon class="cls-23" points="105.61 438.55 137.76 438.55 151.11 451.89 121.99 468.88 99.54 451.89 105.61 438.55"/><polygon class="cls-23" points="302.58 355.71 308.08 371.21 303.25 389.21 320.66 391.05 347.08 357.21 332.08 338.21 302.58 355.71"/><polygon class="cls-23" points="212.16 308.93 211.8 307.6 208.5 288.42 191.72 272.53 191.39 271.48 175.08 295.71 194.08 312.21 212.16 308.93"/><polyline class="cls-23" points="111.32 154.25 126.58 145.72 122.58 121.72 98.58 128.72 93.08 110.72 99.62 98.86"/><polygon class="cls-23" points="172.08 130.22 144.58 114.72 123.92 129.74 126.11 142.89 145.08 149.22 173.08 142.22 172.08 130.22"/><polyline class="cls-23" points="410.31 438.17 400.58 421.21 361.08 442.21 357.58 453.71 318.58 465.21 330.08 476.21 351.58 468.71 354.77 476.27"/><path class="cls-23" d="M431.7,383.76l-35.62-7.71-15.85,7.27c-1.92,6.47-3.65,12.9-3.65,12.9l22,15.5,1.24,9.9.76-.4,9.73,16.95-1.72,2.55h0"/></svg>