<svg width="33" height="32" xmlns="http://www.w3.org/2000/svg" xmlns:xlink="http://www.w3.org/1999/xlink" overflow="hidden"><defs><clipPath id="clip0"><rect x="325" y="569" width="33" height="32"/></clipPath></defs><g clip-path="url(#clip0)" transform="translate(-325 -569)"><path d="M16 4C11.2339 4.0063 6.9215 6.82713 5.006 11.1913 5.006 11.193 5.00467 11.1943 5.003 11.1943 5.00133 11.1943 5 11.193 5 11.1913L5 6 4.33333 6 4.33333 12.3333 10.6667 12.3333 10.6667 11.6667 5.538 11.6667C5.53617 11.6666 5.5347 11.6651 5.53473 11.6633 5.53473 11.6628 5.53483 11.6624 5.535 11.662 7.93677 5.8875 14.565 3.15337 20.3395 5.55513 26.114 7.95693 28.8481 14.5851 26.4463 20.3596 24.0445 26.1341 17.4164 28.8682 11.6419 26.4665 7.41487 24.7083 4.6623 20.578 4.66667 16L4 16C4 22.6274 9.37257 28 16 28 22.6274 28 28 22.6274 28 16 28 9.37257 22.6274 4 16 4Z" transform="matrix(1.03125 0 0 1 325 569)"/><path d="M15.6667 9 15.6667 16.138 20.4343 20.9057 20.9057 20.4343 16.3333 15.862 16.3333 9 15.6667 9Z" transform="matrix(1.03125 0 0 1 325 569)"/></g></svg>