<svg width="324" height="325" xmlns="http://www.w3.org/2000/svg" xmlns:xlink="http://www.w3.org/1999/xlink" overflow="hidden"><defs><clipPath id="clip0"><rect x="794" y="1075" width="324" height="325"/></clipPath><clipPath id="clip1"><rect x="845" y="1127" width="222" height="221"/></clipPath><clipPath id="clip2"><rect x="845" y="1127" width="222" height="221"/></clipPath><clipPath id="clip3"><rect x="845" y="1127" width="222" height="221"/></clipPath></defs><g clip-path="url(#clip0)" transform="translate(-794 -1075)"><path d="M794 1237.5C794 1147.75 866.53 1075 956 1075 1045.47 1075 1118 1147.75 1118 1237.5 1118 1327.25 1045.47 1400 956 1400 866.53 1400 794 1327.25 794 1237.5Z" fill="#045E88" fill-rule="evenodd"/><g clip-path="url(#clip1)"><g clip-path="url(#clip2)"><g clip-path="url(#clip3)"><path d="M124.312 71.3645 124.312 32.2291C124.312 18.9507 121.948 11.2365 120.192 7.33903 119.192 5.75833 117.1 5.28726 115.52 6.28684 115.428 6.34474 115.339 6.40703 115.254 6.47345L97.8913 20.9766C95.7536 22.5279 94.458 24.9845 94.3853 27.625L94.3853 71.3645Z" fill="#FFFFFF" transform="matrix(1 0 0 1 846 1127)"/><path d="M128.916 128.916 128.916 128.916 128.916 82.8749C128.916 81.6034 127.886 80.5728 126.614 80.5728L92.0832 80.5728C90.8118 80.5728 89.7811 81.6034 89.7811 82.8749L89.7811 128.916 89.7811 128.916C87.2382 128.916 85.177 130.978 85.177 133.521L85.177 207.187C85.177 212.273 89.2998 216.396 94.3853 216.396L124.312 216.396C129.398 216.396 133.521 212.273 133.521 207.187L133.521 133.521C133.521 130.978 131.459 128.916 128.916 128.916Z" fill="#FFFFFF" transform="matrix(1 0 0 1 846 1127)"/></g></g></g></g></svg>