<svg width="324" height="325" xmlns="http://www.w3.org/2000/svg" xmlns:xlink="http://www.w3.org/1999/xlink" overflow="hidden"><defs><clipPath id="clip0"><rect x="794" y="521" width="324" height="325"/></clipPath><clipPath id="clip1"><rect x="845" y="573" width="222" height="222"/></clipPath><clipPath id="clip2"><rect x="845" y="573" width="222" height="222"/></clipPath><clipPath id="clip3"><rect x="845" y="573" width="222" height="222"/></clipPath></defs><g clip-path="url(#clip0)" transform="translate(-794 -521)"><path d="M794 683.5C794 593.754 866.53 521 956 521 1045.47 521 1118 593.754 1118 683.5 1118 773.246 1045.47 846 956 846 866.53 846 794 773.246 794 683.5Z" fill="#A6A6A6" fill-rule="evenodd"/><g clip-path="url(#clip1)"><g clip-path="url(#clip2)"><g clip-path="url(#clip3)"><path d="M970.312 644.365 970.312 605.229C970.312 591.951 967.948 584.237 966.192 580.339 965.192 578.758 963.1 578.287 961.52 579.287 961.428 579.345 961.339 579.407 961.254 579.474L943.891 593.977C941.754 595.528 940.458 597.985 940.385 600.625L940.385 644.365Z" fill="#FFFFFF"/><path d="M974.917 701.917 974.917 701.917 974.917 655.875C974.917 654.604 973.886 653.573 972.615 653.573L938.083 653.573C936.812 653.573 935.781 654.604 935.781 655.875L935.781 701.917 935.781 701.917C933.238 701.917 931.177 703.978 931.177 706.521L931.177 780.188C931.177 785.273 935.3 789.396 940.385 789.396L970.312 789.396C975.398 789.396 979.521 785.273 979.521 780.188L979.521 706.521C979.521 703.978 977.459 701.917 974.917 701.917Z" fill="#FFFFFF"/></g></g></g></g></svg>