<svg width="325" height="325" xmlns="http://www.w3.org/2000/svg" xmlns:xlink="http://www.w3.org/1999/xlink" overflow="hidden"><defs><clipPath id="clip0"><rect x="445" y="521" width="325" height="325"/></clipPath><clipPath id="clip1"><rect x="497" y="573" width="222" height="222"/></clipPath><clipPath id="clip2"><rect x="497" y="573" width="222" height="222"/></clipPath><clipPath id="clip3"><rect x="497" y="573" width="222" height="222"/></clipPath></defs><g clip-path="url(#clip0)" transform="translate(-445 -521)"><path d="M445 683.5C445 593.754 517.754 521 607.5 521 697.246 521 770 593.754 770 683.5 770 773.246 697.246 846 607.5 846 517.754 846 445 773.246 445 683.5Z" fill="#A6A6A6" fill-rule="evenodd"/><g clip-path="url(#clip1)"><g clip-path="url(#clip2)"><g clip-path="url(#clip3)"><path d="M706.95 641.372 673.34 608.452C672.419 607.531 671.268 606.841 670.117 606.38L638.808 594.64C637.197 593.949 635.125 594.409 633.974 595.791 627.298 602.697 617.859 607.071 607.5 607.071 597.141 607.071 587.702 602.697 581.026 595.791 579.875 594.409 577.803 594.179 576.192 594.64L544.883 606.38C543.732 606.841 542.581 607.531 541.66 608.452L508.05 641.372C506.208 643.444 506.439 646.667 508.51 648.278L539.358 671.529C541.2 672.911 543.732 672.911 545.344 671.299L556.854 660.479 556.854 772.591 658.146 772.591 658.146 660.709 669.656 671.529C671.268 673.141 674.03 673.141 675.642 671.759L706.49 648.278C708.562 646.667 708.792 643.444 706.95 641.372Z" fill="#FFFFFF"/></g></g></g></g></svg>