<svg width="325" height="325" xmlns="http://www.w3.org/2000/svg" xmlns:xlink="http://www.w3.org/1999/xlink" overflow="hidden"><defs><clipPath id="clip0"><rect x="445" y="1075" width="325" height="325"/></clipPath><clipPath id="clip1"><rect x="497" y="1127" width="222" height="221"/></clipPath><clipPath id="clip2"><rect x="497" y="1127" width="222" height="221"/></clipPath><clipPath id="clip3"><rect x="497" y="1127" width="222" height="221"/></clipPath></defs><g clip-path="url(#clip0)" transform="translate(-445 -1075)"><path d="M445 1237.5C445 1147.75 517.754 1075 607.5 1075 697.246 1075 770 1147.75 770 1237.5 770 1327.25 697.246 1400 607.5 1400 517.754 1400 445 1327.25 445 1237.5Z" fill="#045E88" fill-rule="evenodd"/><g clip-path="url(#clip1)"><g clip-path="url(#clip2)"><g clip-path="url(#clip3)"><path d="M209.95 68.3718 176.339 35.452C175.418 34.5312 174.267 33.8406 173.116 33.3802L141.808 21.6396C140.197 20.9489 138.125 21.4093 136.974 22.7906 130.298 29.6968 120.859 34.0708 110.5 34.0708 100.14 34.0708 90.702 29.6968 84.0259 22.7906 82.8749 21.4093 80.803 21.1791 79.1916 21.6396L47.8833 33.3802C46.7322 33.8406 45.5812 34.5312 44.6604 35.452L11.05 68.3718C9.20832 70.4436 9.43853 73.6666 11.5104 75.278L42.3583 98.529C44.1999 99.9103 46.7322 99.9103 48.3437 98.2988L59.8541 87.479 59.8541 199.59 161.146 199.59 161.146 87.7092 172.656 98.529C174.267 100.14 177.03 100.14 178.641 98.7592L209.489 75.278C211.561 73.6666 211.791 70.4436 209.95 68.3718Z" fill="#FFFFFF" transform="matrix(1 0 0 1 497 1127)"/></g></g></g></g></svg>