<svg width="325" height="325" xmlns="http://www.w3.org/2000/svg" xmlns:xlink="http://www.w3.org/1999/xlink" overflow="hidden"><defs><clipPath id="clip0"><rect x="2685" y="1075" width="325" height="325"/></clipPath><clipPath id="clip1"><rect x="2736" y="1127" width="222" height="221"/></clipPath><clipPath id="clip2"><rect x="2736" y="1127" width="222" height="221"/></clipPath><clipPath id="clip3"><rect x="2736" y="1127" width="222" height="221"/></clipPath></defs><g clip-path="url(#clip0)" transform="translate(-2685 -1075)"><path d="M2685 1237.5C2685 1147.75 2757.75 1075 2847.5 1075 2937.25 1075 3010 1147.75 3010 1237.5 3010 1327.25 2937.25 1400 2847.5 1400 2757.75 1400 2685 1327.25 2685 1237.5Z" fill="#045E88" fill-rule="evenodd"/><g clip-path="url(#clip1)"><g clip-path="url(#clip2)"><g clip-path="url(#clip3)"><path d="M206.796 130.321 164.345 122.356 164.345 122.586 161.284 124.312C146.48 132.016 131.138 138.64 115.38 144.133 113.078 144.87 110.27 145.722 107.047 146.642 114.528 149.336 159.327 165.059 179.885 160.455 193.697 157.37 204.333 145.1 209.812 137.618 211.327 135.577 210.9 132.693 208.859 131.177 208.252 130.727 207.543 130.433 206.796 130.321Z" fill="#FFFFFF" transform="matrix(1 0 0 1 2737 1127)"/><path d="M52.9478 155.39C74.5414 150.303 100.9 143.88 113.216 139.874L113.216 139.874 115.058 139.276 117.659 138.378 117.659 138.378C120.422 137.388 123.184 136.352 125.901 135.293L127.673 134.58 129.492 133.843 130.114 133.59 130.114 133.59C145.952 127.075 159.074 120.146 159.074 120.146 150.28 80.7339 116.485 56.6542 73.8968 63.8597 72.6122 59.7843 68.3695 57.4205 64.228 58.4728L60.3145 59.4857C56.1162 60.5935 53.5508 64.8286 54.5133 69.0624 20.5576 82.2994 8.54072 111.19 16.1146 145.031L19.1303 158.498C19.6805 160.975 22.1307 162.54 24.6092 161.997 29.6047 160.869 38.4217 158.867 48.5969 156.472L48.5969 156.472 53.2011 155.413ZM72.1702 64.7345C84.9792 71.3463 95.5623 81.577 102.604 94.1551 108.846 105.076 113.344 116.906 115.933 129.216L112.157 130.528 111.536 130.735C109.076 118.715 104.724 107.16 98.6441 96.5032 89.9192 81.7699 78.4779 71.7098 65.0107 66.5761ZM46.6401 147.333C42.5885 125.026 43.3482 103.755 48.9422 85.9827 50.8529 79.9768 53.44 74.2076 56.6542 68.7861L63.1921 67.0826C58.9231 73.3537 55.6176 80.2286 53.3852 87.479 47.9753 104.468 47.2387 124.888 51.0832 146.366Z" fill="#FFFFFF" transform="matrix(1 0 0 1 2737 1127)"/></g></g></g></g></svg>