<svg width="325" height="325" xmlns="http://www.w3.org/2000/svg" xmlns:xlink="http://www.w3.org/1999/xlink" overflow="hidden"><defs><clipPath id="clip0"><rect x="2685" y="521" width="325" height="325"/></clipPath><clipPath id="clip1"><rect x="2736" y="573" width="222" height="222"/></clipPath><clipPath id="clip2"><rect x="2736" y="573" width="222" height="222"/></clipPath><clipPath id="clip3"><rect x="2736" y="573" width="222" height="222"/></clipPath></defs><g clip-path="url(#clip0)" transform="translate(-2685 -521)"><path d="M2685 683.5C2685 593.754 2757.75 521 2847.5 521 2937.25 521 3010 593.754 3010 683.5 3010 773.246 2937.25 846 2847.5 846 2757.75 846 2685 773.246 2685 683.5Z" fill="#A6A6A6" fill-rule="evenodd"/><g clip-path="url(#clip1)"><g clip-path="url(#clip2)"><g clip-path="url(#clip3)"><path d="M2943.8 703.321 2901.35 695.356 2901.35 695.586 2898.28 697.313C2883.48 705.016 2868.14 711.64 2852.38 717.134 2850.08 717.87 2847.27 718.722 2844.05 719.643 2851.53 722.336 2896.33 738.059 2916.88 733.455 2930.7 730.37 2941.33 718.1 2946.81 710.619 2948.33 708.577 2947.9 705.693 2945.86 704.177 2945.25 703.727 2944.54 703.433 2943.8 703.321Z" fill="#FFFFFF"/><path d="M2789.95 728.391C2811.54 723.303 2837.9 716.88 2850.22 712.875L2850.22 712.875 2852.06 712.276 2854.66 711.378 2854.66 711.378C2857.42 710.388 2860.18 709.352 2862.9 708.294L2864.67 707.58 2866.49 706.843 2867.11 706.59 2867.11 706.59C2882.95 700.075 2896.07 693.146 2896.07 693.146 2887.28 653.734 2853.49 629.654 2810.9 636.86 2809.61 632.784 2805.37 630.421 2801.23 631.473L2797.31 632.486C2793.12 633.594 2790.55 637.829 2791.51 642.063 2757.56 655.3 2745.54 684.191 2753.11 718.031L2756.13 731.499C2756.68 733.975 2759.13 735.54 2761.61 734.998 2766.6 733.87 2775.42 731.867 2785.6 729.473L2785.6 729.473 2790.2 728.414ZM2809.17 637.735C2821.98 644.346 2832.56 654.577 2839.6 667.155 2845.85 678.076 2850.34 689.906 2852.93 702.216L2849.16 703.528 2848.54 703.735C2846.08 691.715 2841.72 680.161 2835.64 669.503 2826.92 654.77 2815.48 644.71 2802.01 639.576ZM2783.64 720.333C2779.59 698.026 2780.35 676.755 2785.94 658.983 2787.85 652.977 2790.44 647.208 2793.65 641.786L2800.19 640.083C2795.92 646.354 2792.62 653.229 2790.39 660.479 2784.98 677.469 2784.24 697.888 2788.08 719.367Z" fill="#FFFFFF"/></g></g></g></g></svg>