<svg width="325" height="325" xmlns="http://www.w3.org/2000/svg" xmlns:xlink="http://www.w3.org/1999/xlink" overflow="hidden"><defs><clipPath id="clip0"><rect x="2056" y="1075" width="325" height="325"/></clipPath><clipPath id="clip1"><rect x="2107" y="1127" width="222" height="221"/></clipPath><clipPath id="clip2"><rect x="2107" y="1127" width="222" height="221"/></clipPath><clipPath id="clip3"><rect x="2107" y="1127" width="222" height="221"/></clipPath></defs><g clip-path="url(#clip0)" transform="translate(-2056 -1075)"><path d="M2056 1237.5C2056 1147.75 2128.75 1075 2218.5 1075 2308.25 1075 2381 1147.75 2381 1237.5 2381 1327.25 2308.25 1400 2218.5 1400 2128.75 1400 2056 1327.25 2056 1237.5Z" fill="#045E88" fill-rule="evenodd"/><g clip-path="url(#clip1)"><g clip-path="url(#clip2)"><g clip-path="url(#clip3)"><path d="M38.2145 191.533 135.823 95.3061 132.6 92.0832C130.758 90.2415 130.758 87.479 132.6 85.6374L122.931 75.9686C122.24 75.0478 122.24 73.6666 123.161 72.9759 124.082 72.0551 125.233 72.0551 126.154 72.7457L135.823 82.4145 139.046 79.1916 129.377 69.5228C128.686 68.602 128.686 67.2207 129.607 66.5301 130.528 65.6093 131.679 65.6093 132.6 66.2999L142.499 75.9686 145.722 72.7457 135.823 63.077C134.902 62.1562 134.902 60.7749 135.823 59.8541 136.744 58.9332 138.125 58.9332 139.046 59.8541L148.714 69.5228 151.937 66.2999 142.269 56.6312C141.578 55.7103 141.578 54.3291 142.499 53.6385 143.42 52.7176 144.571 52.7176 145.491 53.4083L155.16 63.077 158.613 59.8541 148.945 50.1853C148.254 49.2645 148.254 47.8833 149.175 47.1926 150.096 46.2718 151.247 46.2718 152.167 46.9624L161.836 56.6312 165.059 53.4083 155.39 43.7395C154.7 43.2791 154.47 42.3583 154.7 41.4374 154.93 40.5166 155.621 39.826 156.541 39.5958 157.462 39.3656 158.383 39.826 158.844 40.5166L168.512 50.1853C169.433 49.2645 170.584 48.8041 171.735 48.8041 172.886 48.8041 174.037 49.2645 174.958 50.1853L181.404 56.6312C183.015 58.2426 184.166 60.5447 184.166 63.077 184.166 65.6093 183.246 67.9114 181.404 69.5228L47.8833 201.202C46.9624 202.123 45.8114 202.583 44.6604 202.583 43.5093 202.583 42.3583 202.123 41.4374 201.202L38.2145 197.979C36.6031 196.137 36.6031 193.375 38.2145 191.533Z" fill="#FFFFFF" transform="matrix(1 0 0 1 2108 1127)"/><path d="M122.701 62.8468C121.089 64.228 119.478 66.0697 118.327 67.9114 117.176 69.5228 116.485 71.5947 116.255 73.4363 116.025 77.1197 98.9894 60.3145 109.119 51.1062 116.946 43.9697 140.887 26.2437 137.204 19.3375 134.441 14.0427 158.613 29.927 145.491 41.8979L122.701 62.8468Z" fill="#FFFFFF" transform="matrix(1 0 0 1 2108 1127)"/></g></g></g></g></svg>