<svg width="325" height="325" xmlns="http://www.w3.org/2000/svg" xmlns:xlink="http://www.w3.org/1999/xlink" overflow="hidden"><defs><clipPath id="clip0"><rect x="2056" y="521" width="325" height="325"/></clipPath><clipPath id="clip1"><rect x="2107" y="573" width="222" height="222"/></clipPath><clipPath id="clip2"><rect x="2107" y="573" width="222" height="222"/></clipPath><clipPath id="clip3"><rect x="2107" y="573" width="222" height="222"/></clipPath></defs><g clip-path="url(#clip0)" transform="translate(-2056 -521)"><path d="M2056 683.5C2056 593.754 2128.75 521 2218.5 521 2308.25 521 2381 593.754 2381 683.5 2381 773.246 2308.25 846 2218.5 846 2128.75 846 2056 773.246 2056 683.5Z" fill="#A6A6A6" fill-rule="evenodd"/><g clip-path="url(#clip1)"><g clip-path="url(#clip2)"><g clip-path="url(#clip3)"><path d="M2146.21 764.533 2243.82 668.306 2240.6 665.083C2238.76 663.242 2238.76 660.479 2240.6 658.638L2230.93 648.969C2230.24 648.048 2230.24 646.667 2231.16 645.976 2232.08 645.055 2233.23 645.055 2234.15 645.746L2243.82 655.415 2247.05 652.192 2237.38 642.523C2236.69 641.602 2236.69 640.221 2237.61 639.53 2238.53 638.609 2239.68 638.609 2240.6 639.3L2250.5 648.969 2253.72 645.746 2243.82 636.077C2242.9 635.156 2242.9 633.775 2243.82 632.854 2244.74 631.933 2246.12 631.933 2247.05 632.854L2256.71 642.523 2259.94 639.3 2250.27 629.631C2249.58 628.711 2249.58 627.329 2250.5 626.639 2251.42 625.718 2252.57 625.718 2253.49 626.408L2263.16 636.077 2266.61 632.854 2256.94 623.185C2256.25 622.265 2256.25 620.883 2257.17 620.193 2258.1 619.272 2259.25 619.272 2260.17 619.963L2269.84 629.631 2273.06 626.408 2263.39 616.74C2262.7 616.279 2262.47 615.358 2262.7 614.438 2262.93 613.517 2263.62 612.826 2264.54 612.596 2265.46 612.366 2266.38 612.826 2266.84 613.517L2276.51 623.185C2277.43 622.265 2278.58 621.804 2279.74 621.804 2280.89 621.804 2282.04 622.265 2282.96 623.185L2289.4 629.631C2291.02 631.243 2292.17 633.545 2292.17 636.077 2292.17 638.609 2291.25 640.911 2289.4 642.523L2155.88 774.202C2154.96 775.123 2153.81 775.583 2152.66 775.583 2151.51 775.583 2150.36 775.123 2149.44 774.202L2146.21 770.979C2144.6 769.138 2144.6 766.375 2146.21 764.533Z" fill="#FFFFFF"/><path d="M2230.7 635.847C2229.09 637.228 2227.48 639.07 2226.33 640.911 2225.18 642.523 2224.49 644.595 2224.25 646.437 2224.02 650.12 2206.99 633.315 2217.12 624.106 2224.95 616.97 2248.89 599.244 2245.2 592.338 2242.44 587.043 2266.61 602.927 2253.49 614.898L2230.7 635.847Z" fill="#FFFFFF"/></g></g></g></g></svg>