<svg width="324" height="325" xmlns="http://www.w3.org/2000/svg" xmlns:xlink="http://www.w3.org/1999/xlink" overflow="hidden"><defs><clipPath id="clip0"><rect x="3316" y="1075" width="324" height="325"/></clipPath><clipPath id="clip1"><rect x="3368" y="1127" width="221" height="221"/></clipPath><clipPath id="clip2"><rect x="3368" y="1127" width="221" height="221"/></clipPath><clipPath id="clip3"><rect x="3368" y="1127" width="221" height="221"/></clipPath></defs><g clip-path="url(#clip0)" transform="translate(-3316 -1075)"><path d="M3316 1237.5C3316 1147.75 3388.53 1075 3478 1075 3567.47 1075 3640 1147.75 3640 1237.5 3640 1327.25 3567.47 1400 3478 1400 3388.53 1400 3316 1327.25 3316 1237.5Z" fill="#045E88" fill-rule="evenodd"/><g clip-path="url(#clip1)"><g clip-path="url(#clip2)"><g clip-path="url(#clip3)"><path d="M169.583 153.542 50.4167 153.542C47.8958 153.542 45.8333 155.604 45.8333 158.125L45.8333 183.333C45.8333 185.854 47.8958 187.917 50.4167 187.917L169.583 187.917C172.104 187.917 174.167 185.854 174.167 183.333L174.167 158.125C174.167 155.604 172.104 153.542 169.583 153.542Z" fill="#FFFFFF" transform="matrix(1 0 0 1.00454 3368 1127)"/><path d="M70.8125 77.6875C72.1875 76.3125 74.25 76.3125 75.625 77.6875L82.2708 84.3333 88.9167 77.6875C90.2917 76.3125 92.3542 76.3125 93.7292 77.6875L100.375 84.3333 107.021 77.6875C108.396 76.3125 110.458 76.3125 111.833 77.6875L118.479 84.3333 125.125 77.6875C126.5 76.3125 128.562 76.3125 129.938 77.6875L136.583 84.3333 143.229 77.6875C144.604 76.3125 146.667 76.3125 148.042 77.6875L154.688 84.3333 160.646 78.375C152.625 64.1667 139.104 53.625 122.833 49.7292 122.604 49.0417 122.146 48.125 121.688 47.6667L121 45.8333 123.75 45.8333C126.271 45.8333 128.333 43.7708 128.333 41.25 128.333 38.7292 126.271 36.6667 123.75 36.6667L121 36.6667 122.833 34.8333C124.667 33 124.667 30.25 122.833 28.4167 121 26.5833 118.25 26.5833 116.417 28.4167L114.583 30.25 114.583 27.5C114.583 24.9792 112.521 22.9167 110 22.9167 107.479 22.9167 105.417 24.9792 105.417 27.5L105.417 30.25 103.583 28.4167C101.75 26.5833 99 26.5833 97.1667 28.4167 95.3333 30.25 95.3333 33 97.1667 34.8333L99 36.6667 96.25 36.6667C93.7292 36.6667 91.6667 38.7292 91.6667 41.25 91.6667 43.7708 93.7292 45.8333 96.25 45.8333L99 45.8333 97.1667 47.6667C96.4792 48.3542 96.25 49.0417 96.0208 49.7292 79.75 53.625 66.2292 64.1667 58.2083 78.375L64.1667 84.3333 70.8125 77.6875Z" fill="#FFFFFF" transform="matrix(1 0 0 1.00454 3368 1127)"/><path d="M160.646 121.229C162.021 122.604 162.021 124.667 160.646 126.042 159.958 126.729 159.042 126.958 158.125 126.958 157.208 126.958 156.292 126.729 155.604 126.042L151.25 121.688 146.896 126.042C146.208 126.729 145.292 126.958 144.375 126.958 143.458 126.958 142.542 126.729 141.854 126.042 140.479 124.667 140.479 122.604 141.854 121.229L146.208 116.875 141.854 112.521C140.479 111.146 140.479 109.083 141.854 107.708 143.229 106.333 145.292 106.333 146.667 107.708L151.021 112.063 155.375 107.708C156.75 106.333 158.813 106.333 160.188 107.708 161.562 109.083 161.562 111.146 160.188 112.521L156.062 116.875 160.646 121.229ZM130.625 121.458C128.104 121.458 126.042 119.396 126.042 116.875 126.042 114.354 128.104 112.292 130.625 112.292 133.146 112.292 135.208 114.354 135.208 116.875 135.208 119.396 133.146 121.458 130.625 121.458ZM119.396 121.229C120.771 122.604 120.771 124.667 119.396 126.042 118.708 126.729 117.792 126.958 116.875 126.958 115.958 126.958 115.042 126.729 114.354 126.042L110 121.688 105.646 126.042C104.958 126.729 104.042 126.958 103.125 126.958 102.208 126.958 101.292 126.729 100.604 126.042 99.2292 124.667 99.2292 122.604 100.604 121.229L104.958 116.875 100.604 112.521C99.2292 111.146 99.2292 109.083 100.604 107.708 101.979 106.333 104.042 106.333 105.417 107.708L109.771 112.063 114.125 107.708C115.5 106.333 117.562 106.333 118.938 107.708 120.313 109.083 120.313 111.146 118.938 112.521L114.812 116.875 119.396 121.229ZM89.375 121.458C86.8542 121.458 84.7917 119.396 84.7917 116.875 84.7917 114.354 86.8542 112.292 89.375 112.292 91.8958 112.292 93.9583 114.354 93.9583 116.875 93.9583 119.396 91.8958 121.458 89.375 121.458ZM78.1458 121.229C79.5208 122.604 79.5208 124.667 78.1458 126.042 77.4583 126.729 76.5417 126.958 75.625 126.958 74.7083 126.958 73.7917 126.729 73.1042 126.042L68.75 121.688 64.3958 126.042C63.7083 126.729 62.7917 126.958 61.875 126.958 60.9583 126.958 60.0417 126.729 59.3542 126.042 57.9792 124.667 57.9792 122.604 59.3542 121.229L63.7083 116.875 59.3542 112.521C57.9792 111.146 57.9792 109.083 59.3542 107.708 60.7292 106.333 62.7917 106.333 64.1667 107.708L68.5208 112.063 72.875 107.708C74.25 106.333 76.3125 106.333 77.6875 107.708 79.0625 109.083 79.0625 111.146 77.6875 112.521L73.5625 116.875 78.1458 121.229ZM169.583 107.708C169.583 99.6875 167.979 92.125 165.229 85.25L165 85.0208 158.354 91.6667C156.979 93.0417 154.917 93.0417 153.542 91.6667L146.667 85.0208 140.021 91.6667C138.646 93.0417 136.583 93.0417 135.208 91.6667L128.333 85.0208 121.688 91.6667C120.313 93.0417 118.25 93.0417 116.875 91.6667L110 85.0208 103.354 91.6667C101.979 93.0417 99.9167 93.0417 98.5417 91.6667L91.6667 85.0208 85.0208 91.6667C83.6458 93.0417 81.5833 93.0417 80.2083 91.6667L73.3333 85.0208 66.6875 91.6667C65.3125 93.0417 63.25 93.0417 61.875 91.6667L55 85.0208 54.7708 85.25C52.0208 92.125 50.4167 99.6875 50.4167 107.708L50.4167 144.375 169.583 144.375 169.583 107.708Z" fill="#FFFFFF" transform="matrix(1 0 0 1.00454 3368 1127)"/></g></g></g></g></svg>