<svg width="325" height="325" xmlns="http://www.w3.org/2000/svg" xmlns:xlink="http://www.w3.org/1999/xlink" overflow="hidden"><defs><clipPath id="clip0"><rect x="1424" y="1075" width="325" height="325"/></clipPath><clipPath id="clip1"><rect x="1476" y="1127" width="222" height="221"/></clipPath><clipPath id="clip2"><rect x="1476" y="1127" width="222" height="221"/></clipPath><clipPath id="clip3"><rect x="1476" y="1127" width="222" height="221"/></clipPath></defs><g clip-path="url(#clip0)" transform="translate(-1424 -1075)"><path d="M1424 1237.5C1424 1147.75 1496.75 1075 1586.5 1075 1676.25 1075 1749 1147.75 1749 1237.5 1749 1327.25 1676.25 1400 1586.5 1400 1496.75 1400 1424 1327.25 1424 1237.5Z" fill="#045E88" fill-rule="evenodd"/><g clip-path="url(#clip1)"><g clip-path="url(#clip2)"><g clip-path="url(#clip3)"><path d="M52.9478 29.927 52.9478 55.2499 52.9478 158.844C52.9478 169.894 59.3937 179.792 69.5228 184.166L147.333 218.007C151.937 220.079 156.541 221 161.146 221 174.958 221 188.08 212.712 193.375 198.67 200.051 181.404 191.073 161.836 174.037 154.47L127.305 133.981C123.852 132.6 121.78 129.147 121.78 125.463L121.78 56.1707C121.78 55.9405 121.78 55.4801 121.78 55.2499L121.78 55.2499 121.78 29.927C121.78 24.8625 117.636 20.7187 112.572 20.7187L62.1562 20.7187C57.0916 20.7187 52.9478 24.8625 52.9478 29.927ZM66.7603 62.1562 108.198 62.1562 108.198 125.694C108.198 134.902 113.723 143.189 122.01 146.873L162.987 164.829C150.786 171.965 142.729 185.087 142.729 200.281 142.729 200.511 142.729 200.741 142.729 200.972L95.7665 180.483 100.831 158.613C102.212 152.858 97.8384 147.333 91.853 147.333L66.7603 147.333 66.7603 62.1562Z" fill="#FFFFFF" transform="matrix(1 0 0 1 1476 1127)"/></g></g></g></g></svg>