<svg width="325" height="325" xmlns="http://www.w3.org/2000/svg" xmlns:xlink="http://www.w3.org/1999/xlink" overflow="hidden"><defs><clipPath id="clip0"><rect x="1424" y="521" width="325" height="325"/></clipPath><clipPath id="clip1"><rect x="1476" y="573" width="222" height="222"/></clipPath><clipPath id="clip2"><rect x="1476" y="573" width="222" height="222"/></clipPath><clipPath id="clip3"><rect x="1476" y="573" width="222" height="222"/></clipPath></defs><g clip-path="url(#clip0)" transform="translate(-1424 -521)"><path d="M1424 683.5C1424 593.754 1496.75 521 1586.5 521 1676.25 521 1749 593.754 1749 683.5 1749 773.246 1676.25 846 1586.5 846 1496.75 846 1424 773.246 1424 683.5Z" fill="#A6A6A6" fill-rule="evenodd"/><g clip-path="url(#clip1)"><g clip-path="url(#clip2)"><g clip-path="url(#clip3)"><path d="M1528.95 602.927 1528.95 628.25 1528.95 731.844C1528.95 742.894 1535.39 752.793 1545.52 757.167L1623.33 791.007C1627.94 793.079 1632.54 794 1637.15 794 1650.96 794 1664.08 785.713 1669.38 771.67 1676.05 754.404 1667.07 734.837 1650.04 727.47L1603.31 706.981C1599.85 705.6 1597.78 702.147 1597.78 698.464L1597.78 629.171C1597.78 628.941 1597.78 628.48 1597.78 628.25L1597.78 628.25 1597.78 602.927C1597.78 597.863 1593.64 593.719 1588.57 593.719L1538.16 593.719C1533.09 593.719 1528.95 597.863 1528.95 602.927ZM1542.76 635.156 1584.2 635.156 1584.2 698.694C1584.2 707.902 1589.72 716.19 1598.01 719.873L1638.99 737.829C1626.79 744.966 1618.73 758.088 1618.73 773.281 1618.73 773.512 1618.73 773.742 1618.73 773.972L1571.77 753.483 1576.83 731.614C1578.21 725.858 1573.84 720.333 1567.85 720.333L1542.76 720.333 1542.76 635.156Z" fill="#FFFFFF"/></g></g></g></g></svg>